
<svg width="23" height="23" viewBox="0 0 23 23" fill="none" xmlns="http://www.w3.org/2000/svg">
<g clip-path="url(#clip0)">
<path d="M22.4635 2.744L22.0179 2.29839C21.8864 2.16682 21.673 2.16686 21.5415 2.29839C21.4099 2.42996 21.41 2.64324 21.5415 2.77477L21.9872 3.22037C22.4392 3.67241 22.4392 4.40789 21.9872 4.85992L21.373 5.47411L17.5263 1.62746L18.1405 1.01327C18.5925 0.561233 19.328 0.561233 19.7801 1.01327L20.4321 1.66528C20.5636 1.79681 20.7769 1.79681 20.9085 1.66528C21.04 1.53376 21.04 1.32043 20.9085 1.1889L20.2564 0.536886C19.9102 0.190686 19.4499 0 18.9603 0C18.4706 0 18.0103 0.190686 17.6641 0.536886L4.16337 14.0376C4.0318 14.1691 4.0318 14.3825 4.16337 14.514C4.2949 14.6455 4.50822 14.6455 4.63975 14.514L15.5652 3.5885L17.2504 5.27363L3.39465 19.1292L2.29384 18.6346C2.25399 18.6167 2.22223 18.5849 2.20435 18.5451L1.70965 17.4442L3.5339 15.62C3.66547 15.4884 3.66547 15.2751 3.5339 15.1436C3.40238 15.0121 3.18905 15.0121 3.05752 15.1436C3.05752 15.1436 1.06554 17.1364 1.06361 17.1384C0.976686 17.2296 0.966758 17.3568 0.943984 17.4758C0.925117 17.5743 0.0166509 22.3147 0.010407 22.3473C-0.023912 22.5263 0.0325527 22.7102 0.161474 22.8391C0.265554 22.9432 0.405435 23.0001 0.549719 23.0001C0.584128 23.0001 0.618851 22.9969 0.65335 22.9902C0.65335 22.9902 5.69178 22.0246 5.69434 22.0241C5.75143 22.0125 5.81567 21.9806 5.85987 21.9394C5.8627 21.9367 22.4637 5.33639 22.4637 5.33639C23.1783 4.62166 23.1783 3.45872 22.4635 2.744V2.744ZM0.940704 21.0721L0.958762 20.9778L2.02265 22.0417L2.01767 22.0427L0.706491 22.2939L0.940704 21.0721ZM2.82223 21.8885L1.11199 20.1782L1.43716 18.4816L1.58976 18.8212C1.67528 19.0115 1.8272 19.1635 2.01762 19.2491L3.21371 19.7865L3.75127 20.9828C3.8368 21.1731 3.98876 21.325 4.17909 21.4105L4.51896 21.5633L2.82223 21.8885ZM5.5563 21.2908L4.45531 20.796C4.41551 20.7782 4.3837 20.7464 4.36583 20.7066L3.87107 19.6055L17.7268 5.75001L19.412 7.43515L5.5563 21.2908ZM19.8883 6.95881L16.0417 3.11216L17.0499 2.10388L20.8966 5.95053L19.8883 6.95881Z" fill="#2993F5"/>
</g>
<defs>
<clipPath id="clip0">
<rect width="23" height="23" fill="white"/>
</clipPath>
</defs>
</svg>
