
<svg width="23" height="23" viewBox="0 0 23 23" fill="none" xmlns="http://www.w3.org/2000/svg">
<g clip-path="url(#clip0)">
<path d="M20.6163 4.49151C18.7446 2.05727 16.0371 0.497425 12.9915 0.0991042C9.976 -0.29521 6.98711 0.496782 4.56455 2.32857L3.68861 1.45175C3.43868 1.20162 3.20804 1.28526 3.17607 1.63699L2.88853 4.77577C2.85637 5.1275 3.11808 5.38965 3.47025 5.35789L6.6104 5.07428C6.96257 5.04262 7.04639 4.81188 6.79631 4.56175L5.88761 3.65228C7.8824 2.22346 10.3062 1.61206 12.7514 1.93183C15.3073 2.26605 17.5795 3.57517 19.1501 5.61797C20.7206 7.66061 21.4011 10.1922 21.0668 12.7466C20.8291 14.5607 20.0999 16.2321 18.9652 17.6113C18.5022 18.1737 17.9717 18.6877 17.3792 19.1427C15.3358 20.7126 12.8031 21.393 10.2474 21.0588C7.69199 20.7246 5.41995 19.4154 3.84928 17.3729C2.31923 15.3831 1.63088 12.9142 1.91076 10.421C1.96771 9.91362 1.60248 9.45605 1.09479 9.39932C0.587446 9.34219 0.129981 9.70747 0.0732737 10.2148C-0.260733 13.1859 0.559785 16.1281 2.38297 18.4993C4.25459 20.9335 6.96237 22.4935 10.0076 22.8918C13.0528 23.2899 16.0707 22.4788 18.5063 20.608C19.2117 20.0663 19.8441 19.4537 20.3959 18.7832C21.7485 17.1401 22.6174 15.1488 22.9005 12.9867C23.2989 9.94251 22.4877 6.9256 20.6163 4.49151Z" fill="#2993F5"/>
<path d="M11.0482 4.01392C10.6348 4.01392 10.2997 4.34888 10.2997 4.76203V12.2185L17.1216 15.7433C17.2316 15.8003 17.3491 15.8274 17.4646 15.8272C17.7359 15.8272 17.9974 15.6797 18.1304 15.4223C18.3204 15.0552 18.1766 14.6038 17.8093 14.4137L11.7972 11.3069V4.76208C11.7971 4.34892 11.4619 4.01392 11.0482 4.01392Z" fill="#2993F5"/>
</g>
<defs>
<clipPath id="clip0">
<rect width="23" height="22.9907" fill="white"/>
</clipPath>
</defs>
</svg>
