
<svg width="25" height="25" viewBox="0 0 25 25" fill="none" xmlns="http://www.w3.org/2000/svg">
<g clip-path="url(#clip0)">
<path d="M22.8754 6.44131H22.6611C22.5356 5.36595 21.6702 4.51336 20.5887 4.40903C20.4646 3.24974 19.4811 2.34375 18.2896 2.34375H3.5328C1.55793 2.34375 -0.0488281 3.9505 -0.0488281 5.92519V16.272C-0.0488281 17.4719 0.869371 18.4609 2.03972 18.574C2.16256 19.7209 3.12672 20.6192 4.30108 20.6381C4.30413 20.8416 4.33598 21.0381 4.39378 21.2235C4.6568 22.0679 5.44606 22.6826 6.3759 22.6826H22.8754C24.0201 22.6826 24.9512 21.7514 24.9512 20.607V8.51709C24.9512 7.37248 24.0201 6.44131 22.8754 6.44131V6.44131ZM23.9747 8.51709V16.5121L21.8506 14.9077C21.2702 14.4694 20.4853 14.4625 19.8975 14.8907L17.2106 16.8484L12.0867 11.5658C11.4763 10.9364 10.4832 10.8977 9.82573 11.4779L5.27688 15.4911V8.51709C5.27688 7.91093 5.76993 7.41788 6.3759 7.41788H22.8754C23.4816 7.41788 23.9747 7.91093 23.9747 8.51709ZM23.9747 20.6068C23.9747 21.213 23.4816 21.706 22.8756 21.706H6.3759C5.88361 21.706 5.46571 21.3805 5.32647 20.9334C5.29424 20.8302 5.27688 20.7205 5.27688 20.607V16.7933L10.4719 12.2101C10.7376 11.9755 11.1389 11.9911 11.3857 12.2456L13.6982 14.6298C13.6982 14.63 13.6982 14.63 13.6984 14.63L18.301 19.3753C18.3968 19.4741 18.524 19.5237 18.6516 19.5237C18.7741 19.5237 18.8967 19.4779 18.9915 19.3859C19.1849 19.1981 19.1897 18.8891 19.002 18.6955L17.8973 17.5564L20.4726 15.6801C20.7102 15.507 21.0274 15.5096 21.262 15.6868L23.9747 17.7359V20.6068ZM3.00294 18.3262V6.79742C3.00294 6.7484 3.00542 6.69976 3.01037 6.65208C3.08324 5.93549 3.69035 5.37453 4.42582 5.37453H10.3985C10.6682 5.37453 10.8868 5.15595 10.8868 4.88625C10.8868 4.61655 10.6682 4.39797 10.3985 4.39797H4.42582C3.10269 4.39797 2.02637 5.47429 2.02637 6.79742V17.5873C1.40248 17.475 0.927736 16.9279 0.927736 16.272V5.92519C0.927736 4.48895 2.09637 3.32031 3.5328 3.32031H18.2896C18.9377 3.32031 19.4796 3.78437 19.6003 4.39797H14.3048C14.0351 4.39797 13.8165 4.61655 13.8165 4.88625C13.8165 5.15595 14.0351 5.37453 14.3048 5.37453H20.1138H20.1144H20.3648C21.0091 5.37453 21.5485 5.83325 21.6734 6.44131H6.3759C5.23149 6.44131 4.30032 7.37248 4.30032 8.51709V16.5726V16.573V19.6616C3.58144 19.6411 3.00294 19.0501 3.00294 18.3262V18.3262Z" fill="#2993F5"/>
<path d="M18.9217 9.40503C17.7693 9.40503 16.832 10.3425 16.832 11.4945C16.832 12.6468 17.7695 13.5842 18.9217 13.5842C20.0737 13.5842 21.0112 12.6468 21.0112 11.4945C21.0112 10.3425 20.0737 9.40503 18.9217 9.40503ZM18.9217 12.6077C18.3079 12.6077 17.8086 12.1083 17.8086 11.4947C17.8086 10.8809 18.3079 10.3816 18.9217 10.3816C19.5353 10.3816 20.0346 10.8809 20.0346 11.4947C20.0346 12.1083 19.5353 12.6077 18.9217 12.6077Z" fill="#2993F5"/>
<path d="M11.9009 5.07313C11.9131 5.1025 11.9282 5.13073 11.9457 5.15725C11.9635 5.18395 11.9839 5.20893 12.0064 5.23144C12.0289 5.25376 12.0537 5.27436 12.0806 5.29248C12.1069 5.31002 12.1357 5.32509 12.1651 5.3373C12.1943 5.34951 12.2252 5.35885 12.2565 5.36515C12.2875 5.37144 12.3198 5.37449 12.3516 5.37449C12.3839 5.37449 12.4155 5.37144 12.4474 5.36515C12.4785 5.35885 12.5088 5.34951 12.5386 5.3373C12.5679 5.32509 12.5962 5.31002 12.6227 5.29248C12.6494 5.27436 12.6744 5.25376 12.6969 5.23144C12.7198 5.20893 12.7398 5.18395 12.7579 5.15725C12.7754 5.13073 12.7905 5.1025 12.8027 5.07313C12.8149 5.04338 12.8243 5.01267 12.8306 4.98196C12.8369 4.95011 12.8399 4.91787 12.8399 4.88621C12.8399 4.85436 12.8369 4.82212 12.8306 4.79103C12.8243 4.75975 12.8149 4.72885 12.8027 4.69967C12.7905 4.66992 12.7754 4.6415 12.7579 4.61518C12.7398 4.58828 12.7198 4.56349 12.6969 4.54098C12.6744 4.51847 12.6494 4.49806 12.6227 4.48033C12.5962 4.46278 12.5679 4.44771 12.5386 4.4355C12.5088 4.4233 12.4785 4.41395 12.4474 4.40766C12.3842 4.39488 12.3194 4.39488 12.2565 4.40766C12.2252 4.41395 12.1943 4.4233 12.1651 4.4355C12.1357 4.44771 12.1069 4.46278 12.0806 4.48033C12.0537 4.49806 12.0289 4.51847 12.0064 4.54098C11.9839 4.56349 11.9635 4.58828 11.9457 4.61518C11.9282 4.6415 11.9131 4.66992 11.9009 4.69967C11.8887 4.72885 11.8794 4.75975 11.8731 4.79103C11.8668 4.82212 11.8633 4.85436 11.8633 4.88621C11.8633 4.91787 11.8668 4.95011 11.8731 4.98196C11.8794 5.01267 11.8887 5.04338 11.9009 5.07313Z" fill="#2993F5"/>
</g>
<defs>
<clipPath id="clip0">
<rect width="25" height="25" fill="white"/>
</clipPath>
</defs>
</svg>
