
<svg width="90" height="50" viewBox="0 0 112 66" fill="none" xmlns="http://www.w3.org/2000/svg">
    <g clip-path="url(#clip0)">
        <path d="M2.54554 42.0001C1.14044 42.0001 0 41.328 0 40.5V25.5C0 24.672 1.14044 23.9999 2.54554 23.9999C3.95063 23.9999 5.09107 24.672 5.09107 25.5V40.5C5.09083 41.328 3.95063 42.0001 2.54554 42.0001Z" fill="#F44336"/>
        <path d="M17.8183 54C16.4132 54 15.2727 53.328 15.2727 52.5V13.5C15.2727 12.672 16.4132 11.9999 17.8183 11.9999C19.2234 11.9999 20.3636 12.672 20.3636 13.5V52.5C20.3636 53.328 19.2234 54 17.8183 54Z" fill="#F44336"/>
        <path d="M33.091 66C31.6859 66 30.5455 65.3279 30.5455 64.5V1.49991C30.5455 0.672047 31.6859 0 33.091 0C34.4961 0 35.6365 0.672047 35.6365 1.50005V64.5001C35.6363 65.3281 34.4961 66 33.091 66Z" fill="#F44336"/>
        <path d="M48.3637 63C46.9587 63 45.8182 62.328 45.8182 61.5V4.49999C45.8182 3.67199 46.9587 2.99994 48.3637 2.99994C49.7688 2.99994 50.909 3.67199 50.909 4.49999V61.5C50.909 62.328 49.7688 63 48.3637 63Z" fill="#F44336"/>
        <path d="M63.6365 51.0001C62.2314 51.0001 61.0909 50.3281 61.0909 49.5001V16.5C61.0909 15.672 62.2314 14.9999 63.6365 14.9999C65.0416 14.9999 66.182 15.672 66.182 16.5V49.5001C66.1818 50.3281 65.0416 51.0001 63.6365 51.0001Z" fill="#F44336"/>
        <path d="M78.9092 63C77.5041 63 76.3637 62.328 76.3637 61.5V4.49999C76.3637 3.67199 77.5041 2.99994 78.9092 2.99994C80.3143 2.99994 81.4548 3.67199 81.4548 4.49999V61.5C81.4545 62.328 80.3143 63 78.9092 63Z" fill="#F44336"/>
        <path d="M94.182 51.0001C92.7769 51.0001 91.6364 50.3281 91.6364 49.5001V16.5C91.6364 15.672 92.7769 14.9999 94.182 14.9999C95.5871 14.9999 96.7275 15.672 96.7275 16.5V49.5001C96.7273 50.3281 95.5871 51.0001 94.182 51.0001Z" fill="#F44336"/>
        <path d="M109.455 42.0001C108.05 42.0001 106.909 41.328 106.909 40.5V25.5C106.909 24.672 108.05 23.9999 109.455 23.9999C110.86 23.9999 112 24.672 112 25.5V40.5C112 41.328 110.86 42.0001 109.455 42.0001Z" fill="#F44336"/>
        <path d="M2.54554 42.0001C1.14044 42.0001 0 41.328 0 40.5V25.5C0 24.672 1.14044 23.9999 2.54554 23.9999C3.95063 23.9999 5.09107 24.672 5.09107 25.5V40.5C5.09083 41.328 3.95063 42.0001 2.54554 42.0001Z" fill="#2993F5"/>
        <path d="M17.8183 54C16.4132 54 15.2727 53.328 15.2727 52.5V13.5C15.2727 12.672 16.4132 11.9999 17.8183 11.9999C19.2234 11.9999 20.3636 12.672 20.3636 13.5V52.5C20.3636 53.328 19.2234 54 17.8183 54Z" fill="#2993F5"/>
        <path d="M33.091 66C31.6859 66 30.5455 65.3279 30.5455 64.5V1.49991C30.5455 0.672047 31.6859 0 33.091 0C34.4961 0 35.6365 0.672047 35.6365 1.50005V64.5001C35.6363 65.3281 34.4961 66 33.091 66Z" fill="#2993F5"/>
        <path d="M48.3637 63C46.9587 63 45.8182 62.328 45.8182 61.5V4.49999C45.8182 3.67199 46.9587 2.99994 48.3637 2.99994C49.7688 2.99994 50.909 3.67199 50.909 4.49999V61.5C50.909 62.328 49.7688 63 48.3637 63Z" fill="#2993F5"/>
        <path d="M63.6365 51.0001C62.2314 51.0001 61.0909 50.3281 61.0909 49.5001V16.5C61.0909 15.672 62.2314 14.9999 63.6365 14.9999C65.0416 14.9999 66.182 15.672 66.182 16.5V49.5001C66.1818 50.3281 65.0416 51.0001 63.6365 51.0001Z" fill="#2993F5"/>
        <path d="M78.9092 63C77.5041 63 76.3637 62.328 76.3637 61.5V4.49999C76.3637 3.67199 77.5041 2.99994 78.9092 2.99994C80.3143 2.99994 81.4548 3.67199 81.4548 4.49999V61.5C81.4545 62.328 80.3143 63 78.9092 63Z" fill="#2993F5"/>
        <path d="M94.182 51.0001C92.7769 51.0001 91.6364 50.3281 91.6364 49.5001V16.5C91.6364 15.672 92.7769 14.9999 94.182 14.9999C95.5871 14.9999 96.7275 15.672 96.7275 16.5V49.5001C96.7273 50.3281 95.5871 51.0001 94.182 51.0001Z" fill="#2993F5"/>
        <path d="M109.455 42.0001C108.05 42.0001 106.909 41.328 106.909 40.5V25.5C106.909 24.672 108.05 23.9999 109.455 23.9999C110.86 23.9999 112 24.672 112 25.5V40.5C112 41.328 110.86 42.0001 109.455 42.0001Z" fill="#2993F5"/>
    </g>
    <defs>
        <clipPath id="clip0">
            <rect width="112" height="66" fill="white"/>
        </clipPath>
    </defs>
</svg>
