<svg xmlns="http://www.w3.org/2000/svg" width="25" height="25" viewBox="0 0 25 25" fill="none">
<path d="M22.7701 0.0262279C22.6828 -0.00874263 22.5853 -0.00874263 22.4979 0.0262279L22.4987 0.0273264L0.230318 8.83147C0.0426033 8.90672 -0.0485763 9.11989 0.0267201 9.3076C0.0621941 9.39608 0.130762 9.46726 0.217868 9.50598L9.40907 13.5919L13.4949 22.7831C13.5537 22.9152 13.6847 23.0004 13.8293 23.0006H13.837C13.9846 22.9976 14.116 22.9062 14.1702 22.7688L22.974 0.502266C23.0491 0.314506 22.9578 0.101387 22.7701 0.0262279ZM13.8099 21.69L10.021 13.1656C9.9842 13.0829 9.91806 13.0168 9.83535 12.98L1.31097 9.19106L21.982 1.01895L13.8099 21.69Z" fill="#2993F5"/>
<script xmlns="" type="text/javascript" src="chrome-extension://hejbmebodbijjdhflfknehhcgaklhano/../window/testing-library.js"/></svg>