<svg width="25" height="25" viewBox="0 0 25 25" fill="none" xmlns="http://www.w3.org/2000/svg">
<path d="M4.16667 10.6104H9.58333C9.81375 10.6104 10 10.4238 10 10.1938C10 9.96377 9.81375 9.7771 9.58333 9.7771H4.16667C3.93625 9.7771 3.75 9.96377 3.75 10.1938C3.75 10.4238 3.93625 10.6104 4.16667 10.6104Z" fill="#2993F5"/>
<path d="M15 12.2771H4.16667C3.93625 12.2771 3.75 12.4638 3.75 12.6938C3.75 12.9238 3.93625 13.1104 4.16667 13.1104H15C15.2304 13.1104 15.4167 12.9238 15.4167 12.6938C15.4167 12.4638 15.2304 12.2771 15 12.2771Z" fill="#2993F5"/>
<path d="M15 14.7771H4.16667C3.93625 14.7771 3.75 14.9638 3.75 15.1938C3.75 15.4238 3.93625 15.6104 4.16667 15.6104H15C15.2304 15.6104 15.4167 15.4238 15.4167 15.1938C15.4167 14.9638 15.2304 14.7771 15 14.7771Z" fill="#2993F5"/>
<path d="M22.53 1.05627L8.30417 1.0271C6.94167 1.0271 5.83333 2.13543 5.83333 3.49793V5.63293L2.47083 5.64002C1.10833 5.64002 0 6.74835 0 8.11085V16.9196C0 18.2821 1.10833 19.39 2.47083 19.39H5V23.5567C5 23.7288 5.10583 23.8833 5.26667 23.9454C5.31542 23.9642 5.36625 23.9733 5.41667 23.9733C5.53167 23.9733 5.64458 23.9254 5.725 23.8371L9.76833 19.3892L16.6958 19.3608C18.0583 19.3608 19.1667 18.2525 19.1667 16.8904V16.8433L21.3583 19.2542C21.4387 19.3425 21.5517 19.3904 21.6667 19.3904C21.7171 19.3904 21.7679 19.3813 21.8167 19.3625C21.9775 19.3004 22.0833 19.1458 22.0833 18.9738V14.8071H22.5292C23.8917 14.8071 25 13.6988 25 12.3367V3.5271C25 2.16502 23.8921 1.05668 22.53 1.05627ZM18.3333 16.89C18.3333 17.7929 17.5988 18.5271 16.6942 18.5271L9.58167 18.5563C9.465 18.5567 9.35333 18.6063 9.275 18.6925L5.83333 22.4788V18.9729C5.83333 18.7429 5.64708 18.5563 5.41667 18.5563H2.47083C1.56792 18.5563 0.833333 17.8217 0.833333 16.9192V8.11043C0.833333 7.20752 1.56792 6.47293 2.47167 6.47293L6.25 6.46502C6.25042 6.46502 6.25042 6.46502 6.25083 6.46502L16.6958 6.44335C17.5987 6.44335 18.3333 7.17793 18.3333 8.08085V15.7646V16.89ZM24.1667 12.3358C24.1667 13.2388 23.4321 13.9729 22.5292 13.9729H21.6667C21.4362 13.9729 21.25 14.1596 21.25 14.3896V17.8954L19.1667 15.6038V8.08127C19.1667 6.71877 18.0583 5.61043 16.695 5.61043L6.66667 5.63085V3.49752C6.66667 2.5946 7.40125 1.86002 8.30333 1.86002L22.5287 1.88918C22.5292 1.88918 22.5292 1.88918 22.5296 1.88918C23.4325 1.88918 24.1671 2.62377 24.1671 3.52668V12.3358H24.1667Z" fill="#2993F5"/>
</svg>
